<svg width="800" height="800" viewBox="0 0 800 800" fill="none" xmlns="http://www.w3.org/2000/svg">
<path d="M129.375 445.25C129.375 445.25 120 447 116.875 426.75C113.75 406.5 109.625 319.125 113.125 315.875C121.44 312.322 130.116 309.681 139 308C139 308 139 213.75 172.375 159.75C205.75 105.75 239.875 83.625 305.5 65.25C367.986 49.853 433.421 51.1462 495.25 69C550.375 83.75 604 126.75 618.875 179C628.981 218.085 635.219 258.069 637.5 298.375C648.477 300.625 659.081 304.412 669 309.625C671.125 313.75 674.375 423.625 669 426.875C665.725 428.854 661.95 429.852 658.125 429.75C658.125 429.75 756.375 654.75 753 667.25C749.625 679.75 591.375 746.75 376.75 745.125C162.125 743.5 51.125 677.5 47.25 668.75C43.375 660 129.375 445.25 129.375 445.25Z" fill="#040507"/>
<path d="M165.5 349C165.5 349 158 253.375 181.75 200.125C203.237 157.063 236.93 121.283 278.625 97.25C304.577 86.8003 332.067 80.6774 360 79.125C360.625 81.125 368.375 207 368.25 224.25C367.127 241.071 364.746 257.785 361.125 274.25C361.125 274.25 311.125 243.75 259.125 257C236.8 262.732 216.385 274.259 199.945 290.414C183.505 306.569 171.622 326.779 165.5 349Z" fill="#CC2424"/>
<path d="M376.375 277.25C376.375 277.25 383 231.125 383.125 216.125C383.25 201.125 373.125 80.875 375.625 79.25C383.353 77.4344 391.397 77.4344 399.125 79.25C400 81.25 412.5 225 415.125 244.5C417.588 254.474 418.723 264.729 418.5 275C412.633 279.812 405.383 282.626 397.806 283.03C390.229 283.435 382.721 281.41 376.375 277.25Z" fill="#CC2424"/>
<path d="M435 268C426.762 229.44 420.917 190.407 417.5 151.125C415.375 105.875 411.125 80.5 416.75 78.25C422.375 76 500 80.375 547 121.375C594 162.375 597.75 191.5 594.625 192.125C591.5 192.75 563.125 179.625 561.625 182.5C560.125 185.375 559.75 192.5 562.375 194C565 195.5 596 207.75 597.625 209.75C599.258 213.556 600.433 217.542 601.125 221.625C589.1 215.742 576.543 211.012 563.625 207.5C562.125 209.625 560.75 219 563.625 220C566.5 221 601.125 236.25 601.125 236.25L602.5 246.125C602.5 246.125 567.125 231.375 565 231.875C562.875 232.375 560.5 241.875 563.125 243.375C565.75 244.875 602.625 259.125 603.75 261.25C604.875 263.375 608.875 278.25 608.875 278.25L587.5 271.5C587.5 271.5 591.375 282.375 593.5 284C595.625 285.625 609.75 289.25 609.875 293.5C611.446 307.321 612.281 321.215 612.375 335.125C610.875 335.125 584.875 254.5 547.25 246.5C509.625 238.5 435 268 435 268Z" fill="#CC2424"/>
<path d="M280.5 278.5C308.125 278.5 370.375 309.125 402.5 301.5C434.625 293.875 488.625 266.625 521.375 266.375C554.125 266.125 572.25 297.375 600.875 364.375C629.5 431.375 690.125 581.125 688.375 581.125C686.625 581.125 587.125 357.5 567.625 328.25C548.125 299 534.375 290.75 494.375 293.625C454.375 296.5 409.25 306.125 408.75 311.25C408.25 316.375 408.75 400.875 414.875 408.125C421 415.375 453.125 417 492.125 414.5C531.125 412 554.625 410.375 564.25 406.5C571.679 403.027 578.754 398.84 585.375 394L682.75 600C671.203 588.552 658.928 577.863 646 568C643.375 568.625 642.125 578 643.625 579C645.125 580 689.5 620.625 693.625 625.25C701.672 635.331 708.432 646.374 713.75 658.125C712.25 660.25 708.125 665 705.5 664C702.875 663 643 592.625 638.125 591.125C633.25 589.625 632.5 598.625 632.5 598.625C632.5 598.625 697.25 667.375 695.75 669C691.142 671.729 686.337 674.111 681.375 676.125C681.375 676.125 627.125 613.625 625.125 614.375C623.125 615.125 616.5 621.875 620.125 624.5C638.252 641.54 655.246 659.745 671 679C666.161 681.116 661.141 682.789 656 684C641.956 667.683 627.017 652.159 611.25 637.5C608.125 637.5 603.625 642.375 605.125 644.375C606.625 646.375 646.875 685.5 645.375 687.625C640.806 689.898 635.916 691.457 630.875 692.25C630.875 692.25 600 659.875 597.75 659.875C595.5 659.875 588.5 663.75 591.125 667.375C593.75 671 621 694.75 619.5 695.875C615.428 697.102 611.238 697.898 607 698.25C605.375 698.25 582 673.25 579.25 673.25C576.5 673.25 569.5 675.625 571.125 679.25C572.75 682.875 594 701.625 591.5 703.25C589 704.875 526.875 724 394.5 722.125C262.125 720.25 209 699 209 699C192.371 682.567 174.755 667.163 156.25 652.875C151.625 652.875 146.5 660.375 148.625 661.875C161.244 671.91 173.186 682.767 184.375 694.375C182.375 694.375 143.5 682.875 130.375 680.625C120.621 679.558 111.091 676.985 102.125 673C102.125 671.375 177.125 492.375 180.5 492.875C183.875 493.375 234.125 618.75 234.125 618.75C232.693 625.582 233.358 632.687 236.035 639.134C238.712 645.58 243.275 651.067 249.125 654.875C256.138 657.788 263.734 659.022 271.308 658.479C278.882 657.937 286.224 655.632 292.75 651.75L486.625 652.75C488.125 652.75 519.75 668.625 532.75 644.25C545.75 619.875 538.25 610.875 538.25 610.875C538.25 610.875 588.25 470 585.25 466.875C578.198 464.25 570.77 462.773 563.25 462.5C563.25 462.5 528.875 591.5 525.75 591.625C522.625 591.75 510 587.875 504.75 587.375C501.842 587.053 498.908 587.053 496 587.375L427.5 492.125C427.5 492.125 441.25 417.125 386.5 417.125C331.75 417.125 347.25 492.125 347.25 492.125C347.25 492.125 334.75 491.375 322.25 511C309.75 530.625 279.875 589.625 279.875 589.625C273.728 589.266 267.57 590.116 261.75 592.125C253.5 595.5 248.375 598.25 248.375 598.25C248.375 598.25 204.125 494.625 205.125 492.5C206.125 490.375 215.375 465.625 220.125 465.5C224.875 465.375 256.75 470.375 269.25 470.625C281.75 470.875 283.75 469.25 284.25 467.125C284.75 465 287.625 457.125 285.5 457.125C283.375 457.125 221.625 450 217 450C212.375 450 203.625 476.75 200 477.875C196.375 479 183.5 481 185 477.875C186.5 474.75 212 413.75 213.625 414.125C215.25 414.5 307.75 427.5 335.25 422.125C362.75 416.75 369.75 408.25 373.625 395.125C377.551 367.852 378.598 340.242 376.75 312.75C352.009 303.014 325.815 297.48 299.25 296.375C264.375 295.25 240.875 294.75 225.875 319.125C210.875 343.5 91 665.5 88.875 666.125C84.8978 665.432 81.0305 664.213 77.375 662.5C77.375 662.5 138.75 487.5 162.125 421.75C185.5 356 205.5 277.25 280.5 278.5Z" fill="#CC2424"/>
<path d="M359.5 503.75C368.861 504.469 378.264 504.469 387.625 503.75L416.25 502.625C416.25 502.625 411.375 623.5 416.25 624.5C421.125 625.5 424.625 627.875 424.5 623.75C424.375 619.625 422.125 526.875 425.25 526.375C428.375 525.875 434.625 545.375 434.625 545.375C434.625 545.375 432.875 625.625 434.625 626.125C436.375 626.625 445.625 629.5 445.125 626.875C444.625 624.25 445.125 567.5 445.125 567.5L463 595.75L453.125 596.5C453.125 596.5 452.125 621.5 455.25 621.5C458.204 621.721 461.171 621.721 464.125 621.5C465.625 621.5 465.5 636 465.5 636C465.5 636 374.75 633.625 343 634.375C311.25 635.125 308.75 635.75 308.75 635.75C307.76 627.112 305.441 618.679 301.875 610.75L294.125 594.75C294.125 594.75 354.875 505.375 359.5 503.75Z" fill="#CC2424"/>
<path d="M382.125 514.125C385.625 512.875 392 513.375 392.625 515.375C393.25 517.375 397.75 620.5 394.75 623.25C391.75 626 383.75 625 383.75 623.25C383.75 621.5 380.625 514.625 382.125 514.125Z" fill="#040507"/>
<path d="M359.25 515.75C361.875 514.625 368 513.375 369.125 515.75C370.25 518.125 376 623.375 373.875 624C371.75 624.625 363 626.25 363 624C363 621.75 359.25 515.75 359.25 515.75Z" fill="#040507"/>
<path d="M337.5 560C338.25 558.25 348.375 555 348.375 557.125C350.353 578.942 351.229 600.845 351 622.75C347.756 623.435 344.435 623.688 341.125 623.5C341.125 623.5 336.375 562.5 337.5 560Z" fill="#040507"/>
<path d="M315.625 585C315.625 582.875 322.75 577 323.75 578.625C326.612 592.81 327.704 607.296 327 621.75C323.775 622.663 320.467 623.249 317.125 623.5C317.125 623.5 315.125 587.5 315.625 585Z" fill="#040507"/>
<path d="M515.375 445.25C517.75 444 550.25 443.25 572.625 440.625C579.944 438.978 587.386 437.933 594.875 437.5C597.5 437.5 600.875 448.375 599.375 450C581.809 455.134 563.666 458.032 545.375 458.625C527.125 458.625 516.75 458.625 516.75 458.625C516.75 458.625 510.75 447.375 515.375 445.25Z" fill="#040507"/>
<path d="M525 479.875C529.25 478.75 542.625 498.75 542.625 498.75C542.625 498.75 540.25 508.625 537.625 506.625C530.629 500.559 524.34 493.724 518.875 486.25C517.875 483.625 522.5 480.5 525 479.875Z" fill="#040507"/>
<path d="M505.125 496C508.75 494.75 533.875 518.25 532.875 521C531.875 523.75 531 528.875 529.375 528.375C518.552 520.42 508.394 511.6 499 502C498.5 499.25 503.625 496.5 505.125 496Z" fill="#040507"/>
<path d="M492.625 514.5C492.625 514.5 524.5 539.5 523.5 543.5C522.463 546.517 520.943 549.345 519 551.875C519 551.875 482.375 522.125 483.875 519.375C485.375 516.625 490.5 516.125 492.625 514.5Z" fill="#040507"/>
<path d="M180.625 605C183.125 605.875 215.75 633.875 215.875 639C216 644.125 214.5 646.875 212.875 646.875C199.987 637.825 187.749 627.884 176.25 617.125C175.625 615 178 604 180.625 605Z" fill="#040507"/>
<path d="M170.875 631.25C170.875 631.25 218.75 670.75 218.75 673.375C218.75 676 217.375 681.75 215.875 681.75C197.966 670.213 180.921 657.388 164.875 643.375C164.375 640.25 170.875 631.25 170.875 631.25Z" fill="#040507"/>
<path d="M203.375 212.5C201.25 209.5 208.875 183.75 223 163.625C237.125 143.5 250.375 132.125 256.125 133.625C261.875 135.125 265.75 141.25 263.625 143.875C249.119 152.311 237.323 164.714 229.625 179.625C219.75 202.75 222.75 217.125 219.625 217.875C213.722 218.215 207.911 216.293 203.375 212.5Z" fill="#040507"/>
<path d="M560.625 165.375C567.829 165.505 574.816 167.863 580.625 172.125C581.75 175.25 584 182.5 579.25 181.625C573.143 179.841 567.17 177.627 561.375 175C559.25 174.25 557.5 166 560.625 165.375Z" fill="#040507"/>
</svg>
